<svg width="32" height="33" viewBox="0 0 32 33" fill="none" xmlns="http://www.w3.org/2000/svg">
<path id="whatsapp-logo" d="M25.1721 18.5926L20.2485 16.1308C20.0547 16.0342 19.8389 15.9905 19.6227 16.004C19.4066 16.0175 19.1979 16.0877 19.0176 16.2077L16.7574 17.7155C15.7199 17.1452 14.866 16.2913 14.2956 15.2538L15.8035 12.9936C15.9234 12.8133 15.9937 12.6046 16.0072 12.3884C16.0207 12.1723 15.977 11.9565 15.8804 11.7627L13.4186 6.83912C13.3166 6.63305 13.1589 6.45969 12.9633 6.33868C12.7678 6.21766 12.5423 6.15384 12.3124 6.15444C10.6801 6.15444 9.1147 6.80285 7.96052 7.95703C6.80634 9.11121 6.15793 10.6766 6.15793 12.3089C6.162 15.8986 7.58981 19.3401 10.1281 21.8784C12.6664 24.4167 16.108 25.8446 19.6977 25.8486C20.5059 25.8486 21.3062 25.6894 22.0529 25.3802C22.7996 25.0709 23.478 24.6175 24.0495 24.046C24.621 23.4745 25.0744 22.7961 25.3836 22.0494C25.6929 21.3027 25.8521 20.5024 25.8521 19.6942C25.8523 19.4655 25.7887 19.2413 25.6686 19.0467C25.5485 18.8522 25.3766 18.6949 25.1721 18.5926ZM19.6977 23.3869C16.7606 23.3836 13.9448 22.2154 11.868 20.1386C9.79115 18.0618 8.62296 15.2459 8.6197 12.3089C8.61946 11.4551 8.91506 10.6277 9.45619 9.96733C9.99731 9.30698 10.7505 8.85454 11.5877 8.68699L13.354 12.2258L11.8508 14.4629C11.7385 14.6314 11.6694 14.825 11.6498 15.0266C11.6302 15.2282 11.6607 15.4314 11.7385 15.6184C12.6191 17.7115 14.2843 19.3767 16.3774 20.2573C16.5649 20.3386 16.7697 20.3718 16.9733 20.3541C17.177 20.3364 17.373 20.2682 17.5436 20.1558L19.7915 18.6572L23.3303 20.4235C23.1615 21.2616 22.7071 22.0152 22.0446 22.5556C21.3821 23.096 20.5526 23.3898 19.6977 23.3869ZM16.005 3.81076e-07C13.2424 -0.00060246 10.5267 0.71405 8.1222 2.0744C5.71771 3.43475 3.70638 5.39444 2.28398 7.76274C0.86157 10.131 0.0765482 12.8273 0.00532042 15.589C-0.0659074 18.3507 0.579086 21.0838 1.87752 23.5223L0.131197 28.7612C-0.0134556 29.195 -0.0344482 29.6604 0.0705727 30.1055C0.175594 30.5505 0.402477 30.9574 0.725795 31.2808C1.04911 31.6041 1.45609 31.831 1.9011 31.936C2.34612 32.041 2.81159 32.02 3.24534 31.8754L8.48431 30.129C10.6303 31.2705 13.0081 31.908 15.4373 31.9932C17.8665 32.0785 20.2832 31.6092 22.5039 30.621C24.7246 29.6328 26.6911 28.1517 28.2539 26.29C29.8168 24.4284 30.935 22.2352 31.5236 19.8769C32.1123 17.5186 32.156 15.0571 31.6513 12.6794C31.1467 10.3017 30.107 8.07021 28.6112 6.15431C27.1154 4.2384 25.2028 2.68844 23.0185 1.62209C20.8342 0.555728 18.4357 0.000997373 16.005 3.81076e-07ZM16.005 29.5413C13.6248 29.5429 11.2863 28.9161 9.22592 27.7242C9.07506 27.6367 8.90734 27.5823 8.73387 27.5645C8.56039 27.5467 8.38512 27.566 8.21967 27.6211L2.46527 29.5413L4.38391 23.7869C4.43922 23.6215 4.45877 23.4463 4.44126 23.2729C4.42375 23.0994 4.36959 22.9316 4.28236 22.7806C2.78987 20.2003 2.19064 17.1995 2.57763 14.2438C2.96462 11.2881 4.3162 8.54269 6.42271 6.43353C8.52921 4.32436 11.2729 2.96932 14.2281 2.57859C17.1833 2.18787 20.1848 2.7833 22.7671 4.27254C25.3494 5.76177 27.368 8.06155 28.5099 10.8151C29.6517 13.5687 29.8529 16.6221 29.0823 19.5017C28.3117 22.3813 26.6124 24.9261 24.2479 26.7414C21.8834 28.5566 18.986 29.5408 16.005 29.5413Z" fill="#6709FA"/>
</svg>
